<?xml version="1.0" standalone="no"?>
<!DOCTYPE svg PUBLIC "-//W3C//DTD SVG 20010904//EN"
 "http://www.w3.org/TR/2001/REC-SVG-20010904/DTD/svg10.dtd">
<svg version="1.0" xmlns="http://www.w3.org/2000/svg"
 width="15.000000pt" height="24.000000pt" viewBox="0 0 15.000000 24.000000"
 preserveAspectRatio="xMidYMid meet">

<g transform="translate(0.000000,24.000000) scale(0.100000,-0.100000)"
fill="#000000" stroke="none">
<path d="M87 223 c-4 -3 -2 -12 4 -19 5 -7 9 -47 7 -91 l-3 -78 -35 0 c-31 0
-35 3 -35 27 0 14 -3 30 -8 34 -4 4 -7 -7 -7 -24 0 -42 35 -67 73 -53 30 12
35 26 40 136 2 44 2 72 -1 62 -2 -10 -9 -16 -15 -14 -7 3 -11 10 -9 16 2 12
-2 14 -11 4z"/>
</g>
</svg>
